<svg xmlns="http://www.w3.org/2000/svg" width="268" height="268" fill="none"><path stroke="#000" stroke-linecap="round" stroke-linejoin="round" stroke-width="12" d="M134 262.004V146.899M174.657 8.901a21.47 21.47 0 0 1 20.906 0l53.868 30.183a24.7 24.7 0 0 1 9.197 9.05A24.63 24.63 0 0 1 262 60.57c0 4.37-1.164 8.662-3.372 12.437a24.7 24.7 0 0 1-9.197 9.049L93.214 169.792a21.27 21.27 0 0 1-10.517 2.781c-3.688 0-7.313-.958-10.517-2.781l-53.61-30.183a24.7 24.7 0 0 1-9.198-9.049 24.63 24.63 0 0 1 0-24.874 24.7 24.7 0 0 1 9.197-9.05z"/><path stroke="#000" stroke-linecap="round" stroke-linejoin="round" stroke-width="12" d="M236.605 146.899v49.495a26.3 26.3 0 0 1-3.831 13.691 26.4 26.4 0 0 1-10.405 9.714l-76.954 39.391a24.8 24.8 0 0 1-22.83 0l-76.954-39.391a26.4 26.4 0 0 1-10.406-9.714 26.3 26.3 0 0 1-3.83-13.691v-49.495"/><path stroke="#000" stroke-linecap="round" stroke-linejoin="round" stroke-width="12" d="M249.431 139.609a24.7 24.7 0 0 0 9.197-9.049A24.63 24.63 0 0 0 262 118.123c0-4.37-1.164-8.662-3.372-12.437a24.7 24.7 0 0 0-9.197-9.05L93.343 8.774a21.08 21.08 0 0 0-20.906 0l-53.868 30.31a24.7 24.7 0 0 0-9.197 9.05 24.63 24.63 0 0 0 0 24.874 24.7 24.7 0 0 0 9.197 9.049l156.217 87.735a21.03 21.03 0 0 0 20.905 0z"/><path fill="#000" d="M170.782 72.566a13 13 0 0 0-.566-.58c-.192-.186-.372-.395-.565-.58-.192-.186-.373-.395-.565-.58-.192-.186-.373-.395-.565-.58-.193-.186-.373-.395-.565-.58-.193-.186-.374-.395-.566-.58-.192-.186-.373-.395-.565-.58 5.607 5.655 8.82 13.349 8.942 21.417 0 19.224-19.015 34.863-42.394 34.863-13.091 0-24.803-4.907-32.592-12.599l.565.58.565.58.565.58.566.58.565.58.565.58.565.58c7.778 8.017 19.75 13.18 33.158 13.18 23.379 0 42.394-15.639 42.394-34.806 0-8.19-3.436-15.952-9.507-22.055"/><path fill="#FBF0DF" d="M172.941 89.923c0 17.646-17.715 31.951-39.568 31.951s-39.568-14.305-39.568-31.951c0-10.941 6.783-20.606 17.207-26.337s16.912-11.602 22.361-11.602 10.107 4.792 22.362 11.602c10.423 5.731 17.206 15.396 17.206 26.337"/><path fill="#F6DECE" d="M172.941 89.923a25.8 25.8 0 0 0-.904-6.706c-3.087 38.634-49.008 40.49-67.062 28.935 8.116 6.456 18.131 9.884 28.398 9.722 21.819 0 39.568-14.328 39.568-31.951"/><path fill="#FFFEFC" d="M118.145 61.463c5.054-3.11 11.769-8.945 18.371-8.957a10.3 10.3 0 0 0-3.143-.522c-2.736 0-5.652 1.45-9.327 3.631-1.277.766-2.6 1.613-4.002 2.495-2.634 1.67-5.652 3.562-9.044 5.453-10.762 5.975-17.195 15.825-17.195 26.36v1.38c6.851-24.84 19.298-26.73 24.34-29.84"/><path fill="#CCBEA7" fill-rule="evenodd" d="M130.117 54.92a19.45 19.45 0 0 1-1.643 7.946 19 19 0 0 1-4.722 6.521c-.316.29-.067.847.34.684 3.809-1.52 8.953-6.067 6.783-15.244-.091-.523-.758-.383-.758.092m2.567 0a19.2 19.2 0 0 1 2.576 7.609 19.3 19.3 0 0 1-.756 8.018c-.136.406.35.754.622.418 2.475-3.249 4.634-9.7-1.832-16.66-.328-.302-.837.162-.61.568zm3.12-.198a18.9 18.9 0 0 1 5.314 5.96 19.4 19.4 0 0 1 2.43 7.684.4.4 0 0 0 .071.275.366.366 0 0 0 .508.088.4.4 0 0 0 .156-.235c1.04-4.05.452-10.953-8.106-14.538-.452-.185-.746.441-.373.72zm-20.869 12.066a19 19 0 0 0 7.001-3.927 19.6 19.6 0 0 0 4.835-6.515c.204-.417.848-.255.746.21-1.956 9.28-8.501 11.218-12.571 10.963-.43.012-.418-.603-.011-.73" clip-rule="evenodd"/><path fill="#000" d="M133.373 124.786c-23.379 0-42.394-15.639-42.394-34.863 0-11.602 6.987-22.427 18.687-28.913 3.392-1.856 6.297-3.724 8.886-5.36a238 238 0 0 1 4.07-2.54c3.968-2.414 7.36-4.026 10.751-4.026 3.392 0 6.354 1.392 10.062 3.643 1.13.66 2.261 1.38 3.47 2.17 2.815 1.786 5.992 3.805 10.175 6.113 11.701 6.486 18.687 17.299 18.687 28.913 0 19.224-19.015 34.863-42.394 34.863m0-72.802c-2.736 0-5.652 1.45-9.327 3.631-1.277.766-2.6 1.613-4.002 2.495-2.634 1.67-5.652 3.562-9.044 5.453-10.762 5.975-17.195 15.825-17.195 26.36 0 17.623 17.749 31.963 39.568 31.963s39.568-14.34 39.568-31.963c0-10.535-6.433-20.385-17.206-26.337-4.274-2.32-7.609-4.501-10.311-6.219-1.232-.777-2.362-1.496-3.391-2.134-3.426-2.089-5.924-3.249-8.66-3.249"/><path fill="#B71422" d="M141.343 98.392a10.4 10.4 0 0 1-3.301 5.464 7.6 7.6 0 0 1-4.522 2.182 7.65 7.65 0 0 1-4.669-2.182 10.4 10.4 0 0 1-3.256-5.464.85.85 0 0 1 .228-.697.81.81 0 0 1 .677-.243h13.95a.8.8 0 0 1 .669.248.84.84 0 0 1 .224.692"/><path fill="#FF6164" d="M128.851 103.949a7.73 7.73 0 0 0 4.658 2.205 7.73 7.73 0 0 0 4.646-2.205q.607-.58 1.131-1.241a7.8 7.8 0 0 0-2.5-1.928 7.55 7.55 0 0 0-3.04-.752 6.8 6.8 0 0 0-3.214.897 7.04 7.04 0 0 0-2.438 2.328c.26.244.486.476.757.696"/><path fill="#000" d="M129.032 103.033a6.1 6.1 0 0 1 2.098-1.765 5.9 5.9 0 0 1 2.639-.648 6.7 6.7 0 0 1 4.522 1.96c.26-.29.509-.592.746-.893a7.8 7.8 0 0 0-5.325-2.24 7.04 7.04 0 0 0-3.063.734 7.2 7.2 0 0 0-2.465 2.005q.401.447.848.847"/><path fill="#000" d="M133.475 106.734a8.3 8.3 0 0 1-5.031-2.321 11.1 11.1 0 0 1-3.516-5.859 1.41 1.41 0 0 1 .294-1.16 1.6 1.6 0 0 1 1.278-.592h13.95a1.6 1.6 0 0 1 .704.148c.221.102.417.254.574.444a1.4 1.4 0 0 1 .282 1.16 11.1 11.1 0 0 1-3.516 5.859 8.3 8.3 0 0 1-5.019 2.321m-6.975-8.586c-.181 0-.226.082-.238.105a9.66 9.66 0 0 0 3.087 5.07 6.97 6.97 0 0 0 4.126 2.03 7.02 7.02 0 0 0 4.126-2.007 9.66 9.66 0 0 0 3.075-5.07.23.23 0 0 0-.226-.105z"/><path fill="#FEBBD0" d="M150.58 99.111c3.652 0 6.613-1.787 6.613-3.99 0-2.205-2.961-3.992-6.613-3.992s-6.614 1.787-6.614 3.991 2.961 3.991 6.614 3.991m-34.221 0c3.653 0 6.614-1.787 6.614-3.99 0-2.205-2.961-3.992-6.614-3.992s-6.613 1.787-6.613 3.991 2.961 3.991 6.613 3.991"/><path fill="#000" fill-rule="evenodd" d="M119.468 93.52a6.1 6.1 0 0 0 3.464-1.073 6.36 6.36 0 0 0 2.299-2.866 6.55 6.55 0 0 0 .359-3.695 6.44 6.44 0 0 0-1.702-3.276 6.2 6.2 0 0 0-3.189-1.753 6.1 6.1 0 0 0-3.601.362 6.27 6.27 0 0 0-2.797 2.355 6.5 6.5 0 0 0-1.051 3.552c0 1.694.655 3.318 1.821 4.516a6.15 6.15 0 0 0 4.397 1.877m28.003 0a6.1 6.1 0 0 0 3.473-1.056 6.36 6.36 0 0 0 2.314-2.859 6.55 6.55 0 0 0 .373-3.697 6.45 6.45 0 0 0-1.694-3.285 6.2 6.2 0 0 0-3.189-1.763 6.1 6.1 0 0 0-3.605.356 6.26 6.26 0 0 0-2.803 2.354 6.5 6.5 0 0 0-1.053 3.556 6.47 6.47 0 0 0 1.805 4.508 6.14 6.14 0 0 0 4.379 1.885" clip-rule="evenodd"/><path fill="#fff" fill-rule="evenodd" d="M117.546 87.532c.463.003.917-.136 1.303-.399a2.4 2.4 0 0 0 .867-1.075 2.46 2.46 0 0 0 .138-1.389 2.4 2.4 0 0 0-.638-1.232 2.3 2.3 0 0 0-1.198-.66 2.3 2.3 0 0 0-1.354.134c-.428.181-.794.49-1.052.885a2.45 2.45 0 0 0 .287 3.029c.436.45 1.028.704 1.647.707m28.003 0c.463.003.917-.136 1.303-.399.386-.262.688-.636.867-1.075a2.46 2.46 0 0 0 .138-1.389 2.4 2.4 0 0 0-.638-1.232 2.3 2.3 0 0 0-1.198-.66 2.3 2.3 0 0 0-1.354.134c-.428.181-.794.49-1.052.885a2.44 2.44 0 0 0-.395 1.335c0 .63.242 1.236.673 1.686s1.018.706 1.633.715z" clip-rule="evenodd"/></svg>